<mxfile host="app.diagrams.net" modified="2022-09-19T01:02:58.962Z" agent="5.0 (Windows NT 10.0; Win64; x64) AppleWebKit/537.36 (KHTML, like Gecko) Chrome/105.0.0.0 Safari/537.36" etag="E36ZhDzFxquiKPhHozO-" version="20.3.2" type="github">
  <diagram id="C5RBs43oDa-KdzZeNtuy" name="Page-1">
    <mxGraphModel dx="1550" dy="873" grid="1" gridSize="10" guides="1" tooltips="1" connect="1" arrows="1" fold="1" page="1" pageScale="1" pageWidth="827" pageHeight="1169" background="#ffffff" math="0" shadow="0">
      <root>
        <mxCell id="WIyWlLk6GJQsqaUBKTNV-0" />
        <mxCell id="WIyWlLk6GJQsqaUBKTNV-1" parent="WIyWlLk6GJQsqaUBKTNV-0" />
        <mxCell id="SRzOajds5ytGFX_yiB9D-25" value="" style="edgeStyle=orthogonalEdgeStyle;rounded=0;orthogonalLoop=1;jettySize=auto;html=1;entryX=0.5;entryY=0;entryDx=0;entryDy=0;" edge="1" parent="WIyWlLk6GJQsqaUBKTNV-1" source="SRzOajds5ytGFX_yiB9D-23" target="SRzOajds5ytGFX_yiB9D-26">
          <mxGeometry relative="1" as="geometry">
            <mxPoint x="420" y="180" as="targetPoint" />
          </mxGeometry>
        </mxCell>
        <mxCell id="SRzOajds5ytGFX_yiB9D-23" value="Start" style="ellipse;whiteSpace=wrap;html=1;" vertex="1" parent="WIyWlLk6GJQsqaUBKTNV-1">
          <mxGeometry x="360" y="20" width="120" height="80" as="geometry" />
        </mxCell>
        <mxCell id="SRzOajds5ytGFX_yiB9D-28" value="" style="edgeStyle=orthogonalEdgeStyle;rounded=0;orthogonalLoop=1;jettySize=auto;html=1;" edge="1" parent="WIyWlLk6GJQsqaUBKTNV-1" source="SRzOajds5ytGFX_yiB9D-26" target="SRzOajds5ytGFX_yiB9D-27">
          <mxGeometry relative="1" as="geometry" />
        </mxCell>
        <mxCell id="SRzOajds5ytGFX_yiB9D-30" value="" style="edgeStyle=orthogonalEdgeStyle;rounded=0;orthogonalLoop=1;jettySize=auto;html=1;" edge="1" parent="WIyWlLk6GJQsqaUBKTNV-1" source="SRzOajds5ytGFX_yiB9D-26" target="SRzOajds5ytGFX_yiB9D-29">
          <mxGeometry relative="1" as="geometry" />
        </mxCell>
        <mxCell id="SRzOajds5ytGFX_yiB9D-33" value="" style="edgeStyle=orthogonalEdgeStyle;rounded=0;orthogonalLoop=1;jettySize=auto;html=1;" edge="1" parent="WIyWlLk6GJQsqaUBKTNV-1" source="SRzOajds5ytGFX_yiB9D-26" target="SRzOajds5ytGFX_yiB9D-32">
          <mxGeometry relative="1" as="geometry" />
        </mxCell>
        <mxCell id="SRzOajds5ytGFX_yiB9D-26" value="Goku gets warned about Emperor Pilafs Shenanigans" style="whiteSpace=wrap;html=1;" vertex="1" parent="WIyWlLk6GJQsqaUBKTNV-1">
          <mxGeometry x="360" y="210" width="120" height="60" as="geometry" />
        </mxCell>
        <mxCell id="SRzOajds5ytGFX_yiB9D-27" value="Mountain" style="rhombus;whiteSpace=wrap;html=1;" vertex="1" parent="WIyWlLk6GJQsqaUBKTNV-1">
          <mxGeometry x="600" y="390" width="180" height="80" as="geometry" />
        </mxCell>
        <mxCell id="SRzOajds5ytGFX_yiB9D-29" value="Cave" style="rhombus;whiteSpace=wrap;html=1;" vertex="1" parent="WIyWlLk6GJQsqaUBKTNV-1">
          <mxGeometry x="90" y="390" width="180" height="80" as="geometry" />
        </mxCell>
        <mxCell id="SRzOajds5ytGFX_yiB9D-32" value="Lake" style="rhombus;whiteSpace=wrap;html=1;" vertex="1" parent="WIyWlLk6GJQsqaUBKTNV-1">
          <mxGeometry x="330" y="390" width="180" height="80" as="geometry" />
        </mxCell>
      </root>
    </mxGraphModel>
  </diagram>
</mxfile>
